<svg width="20" height="20" viewBox="0 0 20 20" fill="none" xmlns="http://www.w3.org/2000/svg">
<path d="M17.7778 16.1111H2.22224C2.0749 16.1111 1.93359 16.0526 1.82941 15.9484C1.72522 15.8442 1.66669 15.7029 1.66669 15.5556C1.66669 15.4082 1.72522 15.2669 1.82941 15.1627C1.93359 15.0585 2.0749 15 2.22224 15H17.7778C17.9251 15 18.0665 15.0585 18.1706 15.1627C18.2748 15.2669 18.3334 15.4082 18.3334 15.5556C18.3334 15.7029 18.2748 15.8442 18.1706 15.9484C18.0665 16.0526 17.9251 16.1111 17.7778 16.1111Z" fill="white"/>
<path d="M17.7778 10.5554H2.22224C2.0749 10.5554 1.93359 10.4969 1.82941 10.3927C1.72522 10.2885 1.66669 10.1472 1.66669 9.99989C1.66669 9.85255 1.72522 9.71124 1.82941 9.60705C1.93359 9.50287 2.0749 9.44434 2.22224 9.44434H17.7778C17.9251 9.44434 18.0665 9.50287 18.1706 9.60705C18.2748 9.71124 18.3334 9.85255 18.3334 9.99989C18.3334 10.1472 18.2748 10.2885 18.1706 10.3927C18.0665 10.4969 17.9251 10.5554 17.7778 10.5554Z" fill="white"/>
<path d="M17.7778 5.00003H2.22224C2.0749 5.00003 1.93359 4.9415 1.82941 4.83731C1.72522 4.73312 1.66669 4.59181 1.66669 4.44447C1.66669 4.29713 1.72522 4.15582 1.82941 4.05163C1.93359 3.94745 2.0749 3.88892 2.22224 3.88892H17.7778C17.9251 3.88892 18.0665 3.94745 18.1706 4.05163C18.2748 4.15582 18.3334 4.29713 18.3334 4.44447C18.3334 4.59181 18.2748 4.73312 18.1706 4.83731C18.0665 4.9415 17.9251 5.00003 17.7778 5.00003Z" fill="white"/>
</svg>
