<svg width="28" height="28" viewBox="0 0 28 28" fill="none" xmlns="http://www.w3.org/2000/svg">
<path d="M0.4 14C0.4 6.50131 6.50131 0.4 14 0.4C21.4987 0.4 27.6 6.50131 27.6 14C27.6 21.4987 21.4987 27.6 14 27.6C6.50131 27.6 0.4 21.4987 0.4 14ZM2.4 14C2.4 20.3963 7.60369 25.6 14 25.6C20.3963 25.6 25.6 20.3963 25.6 14C25.6 7.60369 20.3963 2.4 14 2.4C7.60369 2.4 2.4 7.60369 2.4 14Z" fill="white" stroke="#332A53" stroke-width="0.8"/>
<path d="M14.9997 13.4204V13.5861L15.1168 13.7032L18.6238 17.2102L17.2099 18.6241L12.9997 14.4139V7.4H14.9997V13.4204Z" fill="white" stroke="#332A53" stroke-width="0.8"/>
</svg>
