<svg width="60" height="60" viewBox="0 0 60 60" fill="none" xmlns="http://www.w3.org/2000/svg">
<circle cx="30" cy="30" r="30" fill="black" fill-opacity="0.8"/>
<path d="M26.86 23.44C26.5053 22.7867 25.992 22.292 25.32 21.956C24.6667 21.6013 23.892 21.424 22.996 21.424C21.4467 21.424 20.2053 21.9373 19.272 22.964C18.3387 23.972 17.872 25.3253 17.872 27.024C17.872 28.8347 18.3573 30.2533 19.328 31.28C20.3173 32.288 21.6707 32.792 23.388 32.792C24.564 32.792 25.5533 32.4933 26.356 31.896C27.1773 31.2987 27.7747 30.44 28.148 29.32H22.072V25.792H32.488V30.244C32.1333 31.4387 31.5267 32.5493 30.668 33.576C29.828 34.6027 28.7547 35.4333 27.448 36.068C26.1413 36.7027 24.6667 37.02 23.024 37.02C21.0827 37.02 19.3467 36.6 17.816 35.76C16.304 34.9013 15.1187 33.716 14.26 32.204C13.42 30.692 13 28.9653 13 27.024C13 25.0827 13.42 23.356 14.26 21.844C15.1187 20.3133 16.304 19.128 17.816 18.288C19.328 17.4293 21.0547 17 22.996 17C25.348 17 27.3267 17.5693 28.932 18.708C30.556 19.8467 31.6293 21.424 32.152 23.44H26.86Z" fill="white"/>
<path d="M41.524 40.4277H34.188L33.012 43.8997H28L35.112 24.2437H40.656L47.768 43.8997H42.7L41.524 40.4277ZM40.292 36.7317L37.856 29.5357L35.448 36.7317H40.292Z" fill="white"/>
</svg>
