<svg width="28" height="35" viewBox="0 0 28 35" fill="none" xmlns="http://www.w3.org/2000/svg">
<path d="M13.6628 30.7141L14 31.0222L14.3372 30.7141C17.9001 27.4592 20.5574 24.4521 22.3271 21.7274C24.0937 19.0076 25 16.5319 25 14.35C25 7.72787 20.1451 3 14 3C7.85489 3 3 7.72787 3 14.35C3 16.5319 3.90635 19.0076 5.67287 21.7274C7.44265 24.4521 10.0999 27.4592 13.6628 30.7141ZM14 17C12.3511 17 11 15.6489 11 14C11 12.3511 12.3511 11 14 11C15.6489 11 17 12.3511 17 14C17 15.6489 15.6489 17 14 17ZM14 0.5C21.0894 0.5 27.5 5.92644 27.5 14.35C27.5 17.1202 26.3852 20.1947 24.084 23.5871C21.8379 26.8985 18.4814 30.4828 14 34.3414C9.51857 30.4828 6.16212 26.8985 3.91597 23.5871C1.61481 20.1947 0.5 17.1202 0.5 14.35C0.5 5.92644 6.91059 0.5 14 0.5Z" fill="white" stroke="#413164"/>
</svg>
