<svg width="28" height="28" viewBox="0 0 28 28" fill="none" xmlns="http://www.w3.org/2000/svg">
<path d="M9.43201 9.06989L9.25582 9.21964C7.75756 10.4931 7.22725 12.7963 8.5025 14.6338C9.82211 16.5313 11.4695 18.1782 13.3673 19.4972C15.2049 20.7728 17.5084 20.2425 18.7819 18.7442L19.0358 18.4454L19.3865 18.6208L19.3954 18.6252C21.1604 19.4433 23.0361 20.0025 24.9621 20.2876L25.3889 20.3508V20.7822V24.8889V25.3889H24.8889H24.8834C12.2011 25.4064 2.59692 15.6915 2.61113 3.11697V3.11733H3.11113L2.61113 3.11676L9.43201 9.06989ZM9.43201 9.06989V8.83866M9.43201 9.06989V8.83866M9.43201 8.83866V8.8371V8.71909M9.43201 8.83866V8.71909M9.43201 8.71909L9.37924 8.61353M9.43201 8.71909L9.37924 8.61353M9.37924 8.61353L9.37483 8.6047L9.37924 8.61353ZM27.5 19.4413V19.4409C27.5002 19.1877 27.4094 18.9428 27.2441 18.751C27.0788 18.5591 26.8501 18.4331 26.5996 18.3959L25.2717 18.2L25.2713 18.1999C23.5434 17.9434 21.8614 17.4404 20.2765 16.7061L20.2764 16.7061L19.1052 16.1632C19.1051 16.1632 19.1051 16.1632 19.1051 16.1632C18.8819 16.0598 18.6296 16.0376 18.3918 16.1004C18.154 16.1633 17.9456 16.3072 17.8026 16.5073L17.8025 16.5074L17.2723 17.2491L27.5 19.4413ZM27.5 19.4413V26.4444C27.5 26.7244 27.3888 26.9929 27.1908 27.1908C26.9929 27.3888 26.7244 27.5 26.4444 27.5H24.8889H24.8873H24.8866C11.0267 27.5198 0.484766 16.8494 0.500017 3.11322V3.11266V1.55555C0.500017 1.2756 0.611227 1.00712 0.809181 0.809165C1.00714 0.61121 1.27562 0.500001 1.55557 0.500001L8.55712 0.500001L8.55756 0.5C8.81077 0.499782 9.05564 0.5906 9.24747 0.755888C9.43931 0.921176 9.56533 1.14992 9.60255 1.40039L9.60256 1.40044L9.80007 2.72854C10.056 4.45761 10.5598 6.14008 11.2922 7.72326L11.2925 7.72385L11.8369 8.89673L11.8369 8.89677C11.9406 9.12008 11.963 9.37261 11.9001 9.61067C11.8373 9.84873 11.6932 10.0573 11.4928 10.2004L10.7511 10.7291L10.7511 10.7291C9.90088 11.3352 9.60964 12.5259 10.2371 13.4296L10.2373 13.43M27.5 19.4413L10.2373 13.43M10.2373 13.43C11.4133 15.1203 12.881 16.5875 14.5717 17.7628M10.2373 13.43L14.5717 17.7628M14.5717 17.7628C15.4738 18.3904 16.6644 18.1007 17.2721 17.2494L14.5717 17.7628ZM3.11563 3.61111C3.1128 3.46525 3.11129 3.31898 3.11113 3.17231V3.61111H3.11563ZM24.3889 24.8845V24.8889H24.8157C24.673 24.8887 24.5307 24.8872 24.3889 24.8845ZM28 26.4444V19.4413L24.8873 28H24.8889H26.4444C26.857 28 27.2527 27.8361 27.5444 27.5444C27.8361 27.2526 28 26.857 28 26.4444Z" fill="white" stroke="#3B2F5E"/>
</svg>
