<svg width="17" height="17" viewBox="0 0 17 17" fill="none" xmlns="http://www.w3.org/2000/svg">
<path d="M15.7878 1.85453L1.85443 15.7879C1.72246 15.9199 1.54346 15.994 1.35681 15.994C1.17017 15.994 0.99117 15.9199 0.859193 15.7879C0.727215 15.6559 0.653071 15.4769 0.653071 15.2903C0.653071 15.1036 0.727216 14.9246 0.859193 14.7927L14.7926 0.859288C14.9245 0.72731 15.1035 0.653166 15.2902 0.653166C15.4768 0.653165 15.6558 0.72731 15.7878 0.859287C15.9198 0.991264 15.9939 1.17026 15.9939 1.35691C15.9939 1.54355 15.9198 1.72255 15.7878 1.85453Z" fill="white"/>
<path d="M14.431 15.4262L0.497619 1.49286C0.365642 1.36088 0.291498 1.18188 0.291497 0.995241C0.291497 0.808597 0.365642 0.629597 0.497619 0.49762C0.629596 0.365643 0.808596 0.291499 0.99524 0.291499C1.18188 0.291499 1.36088 0.365643 1.49286 0.497621L15.4262 14.431C15.5582 14.563 15.6324 14.742 15.6324 14.9286C15.6324 15.1153 15.5582 15.2943 15.4262 15.4262C15.2943 15.5582 15.1153 15.6324 14.9286 15.6324C14.742 15.6324 14.563 15.5582 14.431 15.4262Z" fill="white"/>
</svg>
